<?xml version="1.0" standalone="no"?>
<!DOCTYPE svg PUBLIC "-//W3C//DTD SVG 20010904//EN"
 "http://www.w3.org/TR/2001/REC-SVG-20010904/DTD/svg10.dtd">
<svg version="1.0" xmlns="http://www.w3.org/2000/svg"
 width="700.000000pt" height="700.000000pt" viewBox="0 0 700.000000 700.000000"
 preserveAspectRatio="xMidYMid meet">
<metadata>
Created by potrace 1.11, written by Peter Selinger 2001-2013
</metadata>
<g transform="translate(0.000000,700.000000) scale(0.100000,-0.100000)"
fill="#000000" stroke="none">
<path d="M3478 6695 c-2 -1 -68 -5 -148 -9 -80 -3 -154 -8 -165 -10 -11 -2
-45 -7 -75 -10 -53 -6 -88 -11 -140 -21 -14 -3 -41 -7 -60 -10 -68 -12 -246
-56 -345 -87 -279 -85 -586 -231 -821 -389 -91 -60 -263 -189 -313 -234 -384
-342 -619 -649 -826 -1078 -36 -74 -65 -142 -65 -150 0 -9 -4 -18 -9 -21 -5
-3 -12 -18 -16 -33 -3 -16 -13 -41 -20 -58 -35 -79 -111 -340 -132 -455 -2
-14 -10 -56 -18 -95 -8 -38 -17 -92 -20 -120 -3 -27 -7 -66 -10 -85 -19 -154
-24 -405 -12 -590 8 -108 9 -125 27 -245 16 -112 20 -136 36 -205 9 -36 18
-76 20 -90 10 -53 76 -265 113 -363 122 -323 283 -608 501 -882 85 -108 115
-140 255 -280 352 -351 772 -610 1250 -770 79 -26 313 -89 370 -99 17 -3 54
-10 84 -16 30 -5 79 -13 109 -16 31 -3 65 -8 76 -10 39 -8 211 -18 325 -18
l113 -1 240 600 c131 330 240 605 242 610 2 6 8 24 15 40 38 94 352 882 397
1000 30 77 59 148 65 158 5 9 17 39 25 65 9 26 24 65 34 87 25 56 80 199 80
206 0 9 -192 90 -335 141 -166 60 -320 103 -480 134 -115 21 -320 26 -420 10
-253 -43 -426 -160 -646 -436 -268 -337 -398 -450 -591 -514 -188 -62 -447
-59 -738 9 -95 23 -390 122 -475 160 -16 7 -52 22 -80 33 -52 21 -127 54 -278
125 -69 32 -86 45 -82 58 3 10 8 26 10 36 2 10 21 92 43 183 23 91 55 224 72
295 17 72 35 144 40 160 6 17 31 109 56 205 26 96 62 227 81 290 19 63 45 151
58 195 35 115 138 408 180 511 44 108 119 261 143 292 l17 22 90 -43 c105 -51
399 -177 450 -193 6 -2 55 -20 110 -39 314 -113 622 -161 849 -132 207 26 382
118 546 288 74 77 70 71 217 244 165 194 262 279 393 347 257 133 595 128
1040 -13 152 -48 338 -121 475 -184 114 -52 109 -52 165 -2 57 51 113 70 165
56 37 -11 84 -60 86 -90 1 -10 2 -27 2 -36 3 -52 -33 -151 -239 -670 -124
-312 -288 -728 -365 -923 -77 -195 -145 -364 -150 -375 -8 -20 -420 -1055
-544 -1370 -35 -88 -161 -405 -280 -705 -119 -300 -232 -585 -251 -635 -20
-49 -42 -104 -50 -122 -20 -44 -18 -56 9 -50 12 3 45 9 72 12 83 10 343 73
456 109 680 221 1259 649 1672 1238 26 37 47 69 47 72 0 3 16 28 35 55 19 26
35 52 35 56 0 4 8 19 19 33 63 91 197 383 265 579 37 108 110 388 120 463 3
25 10 70 16 100 22 125 33 277 33 480 1 671 -207 1321 -597 1870 -34 47 -63
87 -66 90 -3 3 -23 28 -44 55 -101 128 -287 319 -443 455 -56 48 -287 215
-375 269 -379 237 -872 411 -1288 457 -30 3 -66 8 -80 10 -14 2 -90 7 -170 10
-80 3 -153 7 -162 8 -9 2 -18 3 -20 1z"/>
<path d="M5330 4841 c-245 -162 -448 -489 -549 -886 -59 -233 -71 -499 -28
-646 l12 -40 49 123 c115 291 577 1455 586 1476 5 12 8 22 7 22 -2 0 -36 -22
-77 -49z"/>
</g>
</svg>
