<svg enable-background="new 0 0 1000 1000" height="1000" viewBox="0 0 1000 1000" width="1000" xmlns="http://www.w3.org/2000/svg"><rect fill="#fff" height="96%" width="74%" x="13%" y="2%"/><rect fill="#fff" height="74%" width="96%" x="2%" y="13%"/><path d="m195.877.25c-107.717 0-195.877 88.158-195.877 195.877v607.841c0 107.717 88.158 195.845 195.877 195.845h607.841c107.718 0 195.845-88.127 195.845-195.845v-607.841c0-107.717-88.127-195.877-195.845-195.877h-607.841zm49.266 164.948c51.648 0 83.461 33.906 84.443 78.475 0 43.585-32.797 78.444-85.442 78.444h-.969c-50.665 0-83.412-34.857-83.412-78.444 0-44.568 33.738-78.475 85.379-78.475zm445.08 208.31c99.329 0 173.79 64.922 173.79 204.436v260.449h-150.953v-242.987c0-61.06-21.847-102.718-76.476-102.718-41.704 0-66.562 28.078-77.476 55.202-3.987 9.704-4.967 23.257-4.967 36.832v253.671h-150.953s1.981-411.613 0-454.233h150.984v64.324c20.06-30.95 55.942-74.977 136.051-74.977zm-521.556 10.685h150.953v454.202h-150.953z" fill="#4875b4"/></svg>