<svg height="400" viewBox="0 0 400 400" width="400" xmlns="http://www.w3.org/2000/svg" xmlns:xlink="http://www.w3.org/1999/xlink"><linearGradient id="a" gradientTransform="matrix(.98513385 0 0 .98502527 2.885998 2.886356)" gradientUnits="userSpaceOnUse" x1="167.41412" x2="-74.822594" y1="199.32436" y2="-47.626492"><stop offset="0" stop-color="#5f61be"/><stop offset="1" stop-color="#5f70be" stop-opacity="0"/></linearGradient><ellipse cx="200.00482" cy="199.99948" fill="#586e75" rx="196.42982" ry="196.43057" stroke="url(#a)" stroke-width="4"/><g stroke="#fff"><path d="m94.723122 128.30118c58.219438-27.82203 128.023918-36.667276 201.386138-1.06132-17.48928-14.54423-36.52775-24.66932-58.96979-30.546216l1.92365-3.416135c22.20749 1.536101 45.72443 8.310001 72.17 26.798421 39.91977 87.25577 34.36033 132.39243 36.88099 146.19731-22.5412 28.45869-49.45066 36.71109-78.27261 38.20765l-15.65452-19.63449c17.0545-6.47368 33.18476-11.50704 44.57559-30.24772-63.8209 36.35067-129.9098 38.68131-198.73283 0 8.04601 14.2264 24.36327 23.08738 42.9836 29.91606l-16.44384 19.83348c-25.39732-2.0259-50.809516-5.23723-77.187148-37.65284 1.200657-63.43112 18.048992-108.42438 36.717516-146.35412 22.701162-18.24211 46.338152-24.201882 70.445352-27.329082l2.18898 2.520643c-38.74172 12.532679-54.43694 23.047009-64.011078 32.768359z" fill="#fff" fill-rule="evenodd"/><ellipse cx="150.89117" cy="214.96248" fill="#586e75" rx="26.777031" ry="28.653204" stroke-width="1.198282"/><ellipse cx="244.02232" cy="214.96248" fill="#586e75" rx="26.777031" ry="28.653204" stroke-width="1.198282"/></g></svg>